Format : MPEG-4
Format profile : Base Media / Version 2
Codec ID : mp42
File size : 297 MiB
Duration : 1h 32mn
Overall bit rate : 447 Kbps
Encoded date : UTC 2010-10-06 18:57:18
Tagged date : UTC 2010-10-06 18:57:45
Writing application : mp4creator 1.6.1d

Video
ID : 1
Format : AVC
Format/Info : Advanced Video Codec
Format profile : Baseline@L1.3
Format settings, CABAC : No
Format settings, ReFrames : 1 frame
Codec ID : avc1
Codec ID/Info : Advanced Video Coding
Duration : 1h 32mn
Bit rate mode : Variable
Bit rate : 383 Kbps
Width : 480 pixels
Height : 272 pixels
Display aspect ratio : 16:9
Original display aspect ratio : 16:9
Frame rate mode : Constant
Frame rate : 24.000 fps
Resolution : 24 bits
Colorimetry : 4:2:0
Scan type : Progressive
Bits/(Pixel*Frame) : 0.122
Stream size : 254 MiB (86%)
Encoded date : UTC 2010-10-06 18:57:18
Tagged date : UTC 2010-10-06 18:57:43

Audio
ID : 2
Format : AAC
Format/Info : Advanced Audio Codec
Format version : Version 4
Format profile : LC
Format settings, SBR : Yes
Format settings, PS : No
Codec ID : 40
Duration : 1h 32mn
Bit rate mode : Variable
Bit rate : 62.7 Kbps
Maximum bit rate : 94.0 Kbps
Channel(s) : 2 channels
Channel positions : L R
Sampling rate : 48.0 KHz
Resolution : 16 bits
Stream size : 41.6 MiB (14%)
Encoded date : UTC 2010-10-06 18:57:43
Tagged date : UTC 2010-10-06 18:57:45

After the events of Resident Evil: Extinction, the Alice clones (Milla Jovovich) attempt to kill Albert Wesker (Shawn Roberts) at his base in Japan. All present clones are killed in an explosion, as Wesker escapes in an aircraft. The original Alice ambushes him, but Wesker injects her with a serum that neutralizes the T-virus in her system, eliminating her superhuman powers and making her human again. He reveals that his T-Virus powers have surpassed her own, but before he can kill her, the aircraft crashes and Alice emerges from the wreckage.
 
http://www.imdb.com/title/tt1220634/

screen shots
 
http://img215.imageshack.us/img215/7616/reafterlifeh264vicemp4s.jpg 
http://img215.imageshack.us/img215/5430/reafterlifeh264vicemp4sc.jpg 
http://img291.imageshack.us/img291/7616/reafterlifeh264vicemp4s.jpg 
http://img841.imageshack.us/img841/7616/reafterlifeh264vicemp4s.jpg
 
http://img508.imageshack.us/img508/8715/reafterlifeh264vicemp4t.jpg